<svg width="110" height="98" viewBox="0 0 110 98" fill="none" xmlns="http://www.w3.org/2000/svg"><path d="M108.823 13.7191V3.40906H99.5732" stroke="url(#paint0_radial_1_65)" stroke-opacity="0.3" stroke-miterlimit="10" stroke-linecap="round"></path><path d="M0.59082 13.7191V3.40906H9.84082" stroke="url(#paint1_radial_1_65)" stroke-opacity="0.3" stroke-miterlimit="10" stroke-linecap="round"></path><path d="M108.823 86.588V96.898H99.5732" stroke="url(#paint2_radial_1_65)" stroke-opacity="0.3" stroke-miterlimit="10" stroke-linecap="round"></path><path d="M0.59082 86.588V96.898H9.84082" stroke="url(#paint3_radial_1_65)" stroke-opacity="0.3" stroke-miterlimit="10" stroke-linecap="round"></path><path d="M80.6307 85.9896H28.7842C26.0212 85.9896 23.7814 83.7948 23.7814 81.0874V18.6213C23.7814 15.9139 26.0212 13.7191 28.7842 13.7191L65.4222 13.7191L85.6335 32.2191V81.0874C85.6335 83.7948 83.3937 85.9896 80.6307 85.9896Z" fill="url(#paint4_linear_1_65)"></path><path d="M80.6307 85.9896H28.7842C26.0212 85.9896 23.7814 83.7948 23.7814 81.0874V18.6213C23.7814 15.9139 26.0212 13.7191 28.7842 13.7191L65.4222 13.7191L85.6335 32.2191V81.0874C85.6335 83.7948 83.3937 85.9896 80.6307 85.9896Z" fill="url(#paint5_linear_1_65)" fill-opacity="0.1"></path><path d="M80.6307 85.7146H28.7842C26.1678 85.7146 24.0564 83.6377 24.0564 81.0874L24.0564 18.6213C24.0564 16.071 26.1678 13.994 28.7842 13.994L65.3153 13.994L85.3585 32.3402V81.0874C85.3585 83.6377 83.2471 85.7146 80.6307 85.7146Z" stroke="url(#paint6_linear_1_65)" stroke-opacity="0.08" stroke-width="0.54996"></path><g filter="url(#filter0_d_1_65)"><path d="M85.6328 32.6922L71.3768 32.6922C68.0552 32.6922 65.3625 29.9995 65.3625 26.6779L65.3626 13.7365L85.6328 32.6922Z" fill="url(#paint7_linear_1_65)"></path></g><g opacity="0.8"><path d="M89.0114 3.40906L54.1709 3.40906L54.1709 96.898H89.0114L89.0114 3.40906Z" fill="url(#paint8_radial_1_65)" fill-opacity="0.4"></path><path d="M54.207 0.57843L55.207 0.57843L55.207 96.898H54.207L54.207 0.57843Z" fill="url(#paint9_linear_1_65)"></path></g><defs><filter id="filter0_d_1_65" x="59.0749" y="7.17553" width="33.939" height="32.6244" filterUnits="userSpaceOnUse" color-interpolation-filters="sRGB"><feFlood flood-opacity="0" result="BackgroundImageFix"></feFlood><feColorMatrix in="SourceAlpha" type="matrix" values="0 0 0 0 0 0 0 0 0 0 0 0 0 0 0 0 0 0 127 0" result="hardAlpha"></feColorMatrix><feOffset dx="0.546748" dy="0.273374"></feOffset><feGaussianBlur stdDeviation="3.41718"></feGaussianBlur><feColorMatrix type="matrix" values="0 0 0 0 0 0 0 0 0 0 0 0 0 0 0 0 0 0 0.33 0"></feColorMatrix><feBlend mode="normal" in2="BackgroundImageFix" result="effect1_dropShadow_1_65"></feBlend><feBlend mode="normal" in="SourceGraphic" in2="effect1_dropShadow_1_65" result="shape"></feBlend></filter><radialGradient id="paint0_radial_1_65" cx="0" cy="0" r="1" gradientUnits="userSpaceOnUse" gradientTransform="translate(108.823 3.40906) rotate(139.272) scale(13.1336 11.7833)"><stop stop-color="white"></stop><stop offset="1" stop-color="white" stop-opacity="0"></stop></radialGradient><radialGradient id="paint1_radial_1_65" cx="0" cy="0" r="1" gradientUnits="userSpaceOnUse" gradientTransform="translate(0.59082 3.40906) rotate(40.7283) scale(13.1336 11.7833)"><stop stop-color="white"></stop><stop offset="1" stop-color="white" stop-opacity="0"></stop></radialGradient><radialGradient id="paint2_radial_1_65" cx="0" cy="0" r="1" gradientUnits="userSpaceOnUse" gradientTransform="translate(108.823 96.898) rotate(-139.272) scale(13.1336 11.7833)"><stop stop-color="white"></stop><stop offset="1" stop-color="white" stop-opacity="0"></stop></radialGradient><radialGradient id="paint3_radial_1_65" cx="0" cy="0" r="1" gradientUnits="userSpaceOnUse" gradientTransform="translate(0.59082 96.898) rotate(-40.7283) scale(13.1336 11.7833)"><stop stop-color="white"></stop><stop offset="1" stop-color="white" stop-opacity="0"></stop></radialGradient><linearGradient id="paint4_linear_1_65" x1="54.7075" y1="13.7191" x2="54.7075" y2="85.9896" gradientUnits="userSpaceOnUse"><stop stop-color="#1F1F1F"></stop><stop offset="1" stop-color="#0D0D0D"></stop></linearGradient><linearGradient id="paint5_linear_1_65" x1="54.7075" y1="13.7191" x2="54.7075" y2="85.9896" gradientUnits="userSpaceOnUse"><stop stop-color="white" stop-opacity="0.93"></stop><stop offset="1" stop-color="white" stop-opacity="0"></stop></linearGradient><linearGradient id="paint6_linear_1_65" x1="54.7075" y1="13.7191" x2="54.7075" y2="85.9896" gradientUnits="userSpaceOnUse"><stop stop-color="white"></stop><stop offset="1" stop-color="white" stop-opacity="0"></stop></linearGradient><linearGradient id="paint7_linear_1_65" x1="74.035" y1="13.7188" x2="74.035" y2="36.9133" gradientUnits="userSpaceOnUse"><stop stop-color="#3F3F3F"></stop><stop offset="0.965" stop-color="#565656"></stop></linearGradient><radialGradient id="paint8_radial_1_65" cx="0" cy="0" r="1" gradientUnits="userSpaceOnUse" gradientTransform="translate(54.1709 50.1535) scale(33.5962 45.075)"><stop stop-color="white"></stop><stop offset="0.365157" stop-color="white" stop-opacity="0.5"></stop><stop offset="1" stop-color="white" stop-opacity="0"></stop></radialGradient><linearGradient id="paint9_linear_1_65" x1="54.707" y1="0.57843" x2="54.707" y2="96.898" gradientUnits="userSpaceOnUse"><stop stop-color="white" stop-opacity="0"></stop><stop offset="0.517187" stop-color="white"></stop><stop offset="1" stop-color="white" stop-opacity="0"></stop></linearGradient></defs></svg>